
      <svg data-logo="logo" xmlns="http://www.w3.org/2000/svg" viewBox="0 0 44 25">
        <g id="logogram" transform="translate(0, 12.5) rotate(0) "></g>
        <g id="logotype" transform="translate(0, 1)"><path fill="#000000" d="M5.25 23.04L3.54 23.04L2.28 23L0.98 23L0.98 0.28L2.03 0.25L4.73 0.25Q6.86 0.25 8.73 0.69Q10.61 1.12 11.83 2.37Q13.06 3.61 13.23 6.06L13.23 6.06Q13.23 6.79 13.13 7.72Q13.02 8.65 12.71 9.54Q12.39 10.43 11.76 11.06L11.76 11.06Q12.85 12.08 13.06 13.46Q13.27 14.84 13.27 16.11L13.27 16.11Q13.27 18.45 12.78 19.85Q12.29 21.25 11.29 21.93Q10.29 22.61 8.79 22.82Q7.28 23.04 5.25 23.04L5.25 23.04ZM5.29 9.24L5.64 9.28L6.23 9.28Q6.55 9.28 7.00 9.26Q7.46 9.24 8.16 9.03L8.16 9.03Q8.82 8.86 9.12 8.12Q9.42 7.39 9.42 6.55L9.42 6.55Q9.42 5.81 9.21 5.22Q9.00 4.63 8.61 4.48L8.61 4.48L8.58 4.45Q8.02 4.06 7.04 4.03Q6.06 3.99 5.22 3.99L5.22 3.99L4.90 3.99L4.90 9.24L5.29 9.24ZM5.32 19.29L5.81 19.32Q6.72 19.32 7.51 19.18Q8.29 19.04 8.72 18.63L8.72 18.63Q9.07 18.24 9.19 17.54Q9.31 16.84 9.31 16.04L9.31 16.04Q9.31 15.47 9.26 14.91Q9.21 14.35 9.14 13.86L9.14 13.86Q9.07 13.27 8.16 13.09Q7.25 12.92 6.34 12.92L6.34 12.92L5.81 12.92L5.32 12.95L4.90 12.95L4.97 19.29L5.32 19.29ZM21.25 23L21.25 23Q18.94 23 17.57 22.42Q16.21 21.84 15.63 20.57Q15.05 19.29 15.05 17.19L15.05 17.19L15.05 14.98Q15.05 13.90 15.37 12.83Q15.68 11.76 16.52 10.99L16.52 10.99Q15.44 9.98 15.24 8.67Q15.05 7.35 15.05 5.95L15.05 5.95Q15.05 2.87 16.40 1.51Q17.75 0.14 21.25 0.14L21.25 0.14Q23.35 0.14 24.59 0.58Q25.83 1.02 26.43 1.89Q27.02 2.77 27.20 4.06Q27.37 5.36 27.37 7.07L27.37 7.07Q27.37 8.12 27.06 9.16Q26.74 10.19 25.94 10.99L25.94 10.99Q27.06 12.11 27.21 13.44Q27.37 14.77 27.37 16.07L27.37 16.07Q27.37 17.79 27.20 19.08Q27.02 20.38 26.43 21.25Q25.83 22.13 24.59 22.56Q23.35 23 21.25 23ZM21.25 9.03L21.25 9.03Q21.95 9.03 22.56 8.77Q23.17 8.51 23.31 8.02L23.31 8.02Q23.49 7.39 23.49 6.90L23.49 6.90L23.45 5.81L23.45 5.32L23.42 4.87Q23.42 4.34 22.70 4.08Q21.98 3.82 21.18 3.82L21.18 3.82Q20.48 3.82 19.86 4.01Q19.25 4.20 19.04 4.63L19.04 4.63Q19.01 4.90 18.99 5.39Q18.97 5.88 18.97 6.41L18.97 6.41Q18.97 7.04 19.04 7.62Q19.11 8.19 19.36 8.44L19.36 8.44Q19.95 9.03 21.25 9.03ZM21.14 19.11L21.14 19.11Q22.02 19.11 22.73 18.84Q23.45 18.55 23.45 18.03L23.45 18.03L23.45 16.66Q23.45 16.17 23.43 15.53Q23.42 14.88 23.36 14.34Q23.31 13.79 23.17 13.69L23.17 13.69Q22.86 13.30 22.33 13.15Q21.81 12.99 21.21 12.99L21.21 12.99Q20.62 12.99 20.07 13.15Q19.53 13.30 19.25 13.69L19.25 13.69Q19.08 13.93 19.04 14.86Q19.01 15.79 19.01 16.66L19.01 16.66L19.01 17.99Q19.01 18.59 19.67 18.85Q20.34 19.11 21.14 19.11ZM33.22 23L29.33 23L29.33 0.28L33.18 0.28L38.82 13.16L38.82 0.28L42.77 0.28L42.77 23L38.85 23L33.22 10.12L33.22 23Z"/></g>
        
      </svg>
    